<svg xmlns="http://www.w3.org/2000/svg" xmlns:xlink="http://www.w3.org/1999/xlink" width="2000" zoomAndPan="magnify" viewBox="0 0 1500 1499.999933" height="2000" preserveAspectRatio="xMidYMid meet" version="1.0"><defs><clipPath id="f47cbb053a"><path d="M 431.730469 647.441406 L 1183 647.441406 L 1183 1350 L 431.730469 1350 Z M 431.730469 647.441406 " clip-rule="nonzero"/></clipPath><clipPath id="034ef2cf1a"><path d="M 338 214 L 1093 214 L 1093 683 L 338 683 Z M 338 214 " clip-rule="nonzero"/></clipPath><clipPath id="09ce2ed0e1"><path d="M 313.308594 278.121094 L 1065.988281 150.046875 L 1142.480469 599.585938 L 389.796875 727.660156 Z M 313.308594 278.121094 " clip-rule="nonzero"/></clipPath><clipPath id="51a28f87c9"><path d="M 313.308594 278.121094 L 1065.988281 150.046875 L 1142.480469 599.585938 L 389.796875 727.660156 Z M 313.308594 278.121094 " clip-rule="nonzero"/></clipPath></defs><g clip-path="url(#f47cbb053a)"><path fill="#d0a933" d="M 1173.148438 946.238281 C 1103.054688 846.945312 1033.832031 747.089844 964.296875 647.441406 C 839.53125 666.390625 715.023438 686.90625 590.261719 705.855469 C 537.046875 820.519531 484.542969 935.476562 431.988281 1050.484375 C 510.414062 1149.933594 587.730469 1250.289062 665.902344 1349.992188 C 792.585938 1335.890625 919.265625 1321.496094 1045.953125 1307.5 C 1091.480469 1194.757812 1135.695312 1081.421875 1180.921875 968.582031 C 1186.4375 959.933594 1176.828125 953.058594 1173.148438 946.238281 Z M 1032.007812 956.601562 C 981.164062 935.753906 930.414062 914.621094 879.6875 893.441406 L 955.480469 708.441406 C 981.066406 791.128906 1006.707031 873.816406 1032.007812 956.601562 Z M 692.433594 815.410156 C 771.40625 775.855469 850.417969 736.324219 929.398438 696.695312 L 853.300781 882.441406 C 799.691406 860.03125 746.101562 837.609375 692.433594 815.410156 Z M 948.835938 686.957031 Z M 898.296875 692.71875 C 824.066406 730.972656 748.777344 767.15625 674.542969 805.402344 C 657.160156 782.257812 640.285156 758.710938 622.800781 735.671875 C 714.613281 721.167969 806.433594 706.664062 898.296875 692.71875 Z M 609.257812 746.589844 C 626.433594 769.53125 643.671875 792.519531 660.5 815.714844 C 604.761719 875.394531 550.695312 936.640625 494.453125 995.910156 C 533.207031 912.984375 570.75 829.5625 609.257812 746.589844 Z M 473.878906 1044.976562 C 537.601562 975.1875 601.621094 905.613281 665.34375 835.726562 C 681.105469 959.425781 696.625 1083.082031 712.339844 1206.734375 C 632.910156 1152.765625 553.421875 1098.847656 473.878906 1044.976562 Z M 692.023438 1312.441406 C 703.949219 1286.367188 716.382812 1260.496094 728.101562 1234.324219 C 808.957031 1249.683594 889.753906 1265.300781 970.507812 1281.0625 C 877.785156 1292.128906 784.902344 1302.238281 692.023438 1312.441406 Z M 1019.730469 1272.46875 C 927.761719 1254.578125 835.636719 1237.753906 743.726562 1219.714844 C 841.25 1144.21875 938.933594 1068.972656 1036.410156 993.429688 C 1031 1086.464844 1026 1179.496094 1019.730469 1272.46875 Z M 1040.042969 1228.210938 C 1044.691406 1145.9375 1049.847656 1063.675781 1054.449219 981.359375 C 1083.199219 978.78125 1111.953125 977.011719 1140.703125 974.132812 C 1108.613281 1059.382812 1074.304688 1143.820312 1040.042969 1228.210938 Z M 1040.042969 1228.210938 " fill-opacity="1" fill-rule="nonzero"/></g><g clip-path="url(#034ef2cf1a)"><g clip-path="url(#09ce2ed0e1)"><g clip-path="url(#51a28f87c9)"><path fill="#d0a933" d="M 1073.992188 320.039062 L 1079.273438 332.699219 C 999.027344 459.144531 942.546875 522.101562 918.777344 497.71875 C 894.628906 447.875 893.429688 394.71875 908.625 339.199219 L 927.351562 326.207031 L 923.605469 280.417969 L 897.90625 318.5 L 908.050781 339.367188 C 889.574219 387.148438 868.335938 430.300781 841.347656 463.777344 C 812.925781 499.03125 803.417969 504.914062 773.875 462.097656 C 751.988281 430.371094 738.640625 385.144531 721.011719 346.679688 L 742.972656 310.03125 L 689.804688 214.140625 L 671.355469 322.210938 L 704.191406 349.523438 C 700.28125 391.660156 702.648438 438.761719 692.472656 475.941406 C 678.757812 526.117188 667.855469 523.714844 629.359375 499.84375 C 592.8125 477.171875 558.492188 443.46875 525.257812 404.484375 L 527.925781 381.449219 L 491.074219 354.007812 L 502.679688 398.460938 L 524.664062 404.527344 C 557.363281 451.894531 573.8125 502.457031 567.507812 557.484375 C 553.148438 588.355469 479.023438 547.617188 361.46875 454.832031 L 362.257812 441.140625 L 338.367188 425.398438 L 347.171875 452.621094 L 360.234375 455.433594 L 536.175781 668.640625 C 536.101562 668.707031 536.046875 668.75 536.046875 668.75 L 542.863281 676.746094 C 772.757812 555.019531 934.46875 595.734375 934.46875 595.734375 C 934.46875 595.734375 868.480469 568.355469 734.660156 591.410156 C 635.871094 608.011719 574.757812 642.203125 549.492188 659 L 479.324219 564.953125 C 480.316406 565.519531 481.316406 566.078125 482.316406 566.632812 C 507.378906 580.542969 550.902344 602.582031 577.296875 580.550781 C 581.769531 576.816406 585.246094 572.152344 587.707031 566.886719 L 589.230469 563.605469 L 589.640625 560.015625 C 592.085938 538.65625 591.410156 517.972656 588.039062 497.96875 C 597.597656 505.464844 607.449219 512.457031 617.628906 518.761719 C 634.765625 529.390625 656.578125 543.53125 677.554688 536.695312 C 700.238281 529.308594 708.339844 502.40625 713.960938 481.8125 C 720.210938 458.988281 722.085938 434.402344 723.210938 410.425781 C 732.214844 432.679688 742.109375 455.261719 755.546875 474.734375 C 767.675781 492.304688 784.21875 515.015625 808.0625 514.488281 C 830.128906 514 846.035156 493.4375 858.6875 477.746094 C 866.203125 468.429688 873.203125 458.570312 879.722656 448.335938 C 883.171875 468.332031 889.371094 488.078125 898.734375 507.421875 L 900.308594 510.675781 L 902.828125 513.265625 C 906.894531 517.425781 911.71875 520.671875 917.183594 522.714844 C 949.382812 534.769531 983.15625 499.585938 1002.199219 478.171875 C 1002.894531 477.394531 1003.578125 476.621094 1004.261719 475.832031 L 955.683594 608.042969 C 921.945312 602.609375 856.046875 596.921875 766.402344 612.355469 C 633.53125 634.6875 580.105469 681.785156 579.28125 682.519531 C 580.582031 681.664062 710.085938 597.058594 949.136719 625.863281 C 956.605469 626.765625 964.179688 627.773438 971.863281 628.898438 L 1080.632812 332.855469 L 1092.027344 325.886719 L 1091.332031 297.28125 Z M 1073.992188 320.039062 " fill-opacity="1" fill-rule="evenodd"/></g></g></g></svg>